<?xml version="1.0" encoding="UTF-8" standalone="no"?>
<svg width="15px" height="15px" viewBox="0 0 15 15" version="1.1" xmlns="http://www.w3.org/2000/svg" xmlns:xlink="http://www.w3.org/1999/xlink">
    <!-- Generator: sketchtool 40.1 (33804) - http://www.bohemiancoding.com/sketch -->
    <title>772CD17C-29BB-4316-83D2-1C4DA7DE2E52</title>
    <desc>Created with sketchtool.</desc>
    <defs></defs>
    <g id="1200-Grid" stroke="none" stroke-width="1" fill="none" fill-rule="evenodd">
        <g id="Assets" transform="translate(-688.000000, -313.000000)" fill="#5D52A8">
            <path d="M695.5,316.75 C693.43,316.75 691.75,318.43 691.75,320.5 C691.75,322.57 693.43,324.25 695.5,324.25 C697.57,324.25 699.25,322.57 699.25,320.5 C699.25,318.43 697.57,316.75 695.5,316.75 L695.5,316.75 Z M695.5,313 C691.36,313 688,316.36 688,320.5 C688,324.64 691.36,328 695.5,328 C699.64,328 703,324.64 703,320.5 C703,316.36 699.64,313 695.5,313 L695.5,313 Z M695.5,326.5 C692.185,326.5 689.5,323.815 689.5,320.5 C689.5,317.185 692.185,314.5 695.5,314.5 C698.815,314.5 701.5,317.185 701.5,320.5 C701.5,323.815 698.815,326.5 695.5,326.5 L695.5,326.5 Z" id="Checked"></path>
        </g>
    </g>
</svg>