<?xml version="1.0" encoding="UTF-8" standalone="no"?>
<svg width="26px" height="26px" viewBox="0 0 26 26" version="1.1" xmlns="http://www.w3.org/2000/svg" xmlns:xlink="http://www.w3.org/1999/xlink">
    <!-- Generator: sketchtool 40.3 (33839) - http://www.bohemiancoding.com/sketch -->
    <title>D1D5D75E-141B-4A79-A562-851F06C7986C</title>
    <desc>Created with sketchtool.</desc>
    <defs></defs>
    <g id="1200-Grid" stroke="none" stroke-width="1" fill="none" fill-rule="evenodd">
        <g id="Clipboard" transform="translate(-781.000000, -428.000000)" fill="#5D52A8">
            <path d="M807,441 C807,433.820298 801.179702,428 794,428 C786.820298,428 781,433.820298 781,441 C781,448.179702 786.820298,454 794,454 C801.179702,454 807,448.179702 807,441 Z M782.625,441 C782.625,434.717761 787.717761,429.625 794,429.625 C800.282239,429.625 805.375,434.717761 805.375,441 C805.375,447.282239 800.282239,452.375 794,452.375 C787.717761,452.375 782.625,447.282239 782.625,441 Z M795.698802,442.113015 L795.698802,440.698802 L791.42471,444.972894 C791.034185,445.363418 791.034185,445.996583 791.42471,446.387107 C791.815234,446.777631 792.448399,446.777631 792.838923,446.387107 L797.113015,442.113015 L797.820122,441.405908 L797.113015,440.698802 L792.707107,436.292893 C792.316582,435.902369 791.683418,435.902369 791.292893,436.292893 C790.902369,436.683418 790.902369,437.316582 791.292893,437.707107 L795.698802,442.113015 Z" id="Chevron-Circle"></path>
        </g>
    </g>
</svg>