<?xml version="1.0" encoding="UTF-8" standalone="no"?>
<svg width="25px" height="25px" viewBox="0 0 25 25" version="1.1" xmlns="http://www.w3.org/2000/svg" xmlns:xlink="http://www.w3.org/1999/xlink">
    <!-- Generator: sketchtool 40.3 (33839) - http://www.bohemiancoding.com/sketch -->
    <title>71C4498F-9A0E-422F-8447-E87AD316DFD1</title>
    <desc>Created with sketchtool.</desc>
    <defs></defs>
    <g id="Pages" stroke="none" stroke-width="1" fill="none" fill-rule="evenodd">
        <g id="Assets" transform="translate(-792.000000, -183.000000)" fill="#FFFFFF">
            <path d="M804.5,183 C797.5875,183 792,188.5875 792,195.5 C792,202.4125 797.5875,208 804.5,208 C811.4125,208 817,202.4125 817,195.5 C817,188.5875 811.4125,183 804.5,183 L804.5,183 Z M809.9375,199.404125 L808.404125,200.9375 L804.5,197.033375 L800.595875,200.9375 L799.0625,199.404125 L802.966625,195.5 L799.0625,191.595875 L800.595875,190.0625 L804.5,193.966625 L808.404125,190.0625 L809.9375,191.595875 L806.033375,195.5 L809.9375,199.404125 L809.9375,199.404125 Z" id="Close_White"></path>
        </g>
    </g>
</svg>