<?xml version="1.0" encoding="UTF-8" standalone="no"?>
<svg width="30px" height="30px" viewBox="0 0 30 30" version="1.1" xmlns="http://www.w3.org/2000/svg" xmlns:xlink="http://www.w3.org/1999/xlink">
    <!-- Generator: sketchtool 39.1 (31720) - http://www.bohemiancoding.com/sketch -->
    <title>1CC820B4-AAC7-4AF6-833D-AD4688EF8698</title>
    <desc>Created with sketchtool.</desc>
    <defs></defs>
    <g id="1200-Grid" stroke="none" stroke-width="1" fill="none" fill-rule="evenodd">
        <g id="Assets" transform="translate(-352.000000, -127.000000)" fill="#FFFFFF">
            <path d="M367,127 C358.705,127 352,133.705 352,142 C352,150.295 358.705,157 367,157 C375.295,157 382,150.295 382,142 C382,133.705 375.295,127 367,127 L367,127 Z M372.25,145.7695 L370.7695,147.25 L367,143.4805 L363.2305,147.25 L361.75,145.7695 L365.5195,142 L361.75,138.2305 L363.2305,136.75 L367,140.5195 L370.7695,136.75 L372.25,138.2305 L368.4805,142 L372.25,145.7695 L372.25,145.7695 Z" id="Close"></path>
        </g>
    </g>
</svg>