<?xml version="1.0" encoding="UTF-8"?>
<svg width="1762px" height="1585px" viewBox="0 0 1762 1585" version="1.1" xmlns="http://www.w3.org/2000/svg" xmlns:xlink="http://www.w3.org/1999/xlink">
    <!-- Generator: Sketch 51.3 (57544) - http://www.bohemiancoding.com/sketch -->
    <title>Decoration</title>
    <desc>Created with Sketch.</desc>
    <defs></defs>
    <g id="_____Login" stroke="none" stroke-width="1" fill="none" fill-rule="evenodd">
        <g id="Decoration" transform="translate(0.000000, 0.000000)" fill="#FFFFFF" fill-rule="nonzero">
            <path d="M1361.96929,0 C1586.28259,0 1761.95541,175.712573 1761.95541,400 C1761.95541,624.321084 1586.28259,800 1361.96929,800 C1137.65599,800 962,624.321084 962,400 C962,175.712573 1137.65599,0 1361.96929,0 Z M1362.46571,673.358716 C1520.5704,673.358716 1635.28486,558.404678 1635.28486,400.033657 C1635.28486,241.61215 1520.5704,126.674941 1362.46571,126.674941 C1206.38034,126.674941 1088.65372,244.178464 1088.65372,400.033657 C1088.65372,555.846778 1206.38034,673.358716 1362.46571,673.358716 Z" id="Circle" opacity="0.06"></path>
            <path d="M500,1585 C223.857625,1585 0,1361.14237 0,1085 C0,808.857625 223.857625,585 500,585 C776.142375,585 1000,808.857625 1000,1085 C1000,1361.14237 776.142375,1585 500,1585 Z M500,1553.75 C758.883476,1553.75 968.75,1343.88348 968.75,1085 C968.75,826.116524 758.883476,616.25 500,616.25 C241.116524,616.25 31.25,826.116524 31.25,1085 C31.25,1343.88348 241.116524,1553.75 500,1553.75 Z" id="Thin-Circle" opacity="0.05"></path>
        </g>
    </g>
</svg>