<?xml version="1.0" encoding="UTF-8" standalone="no"?>
<svg width="15px" height="15px" viewBox="0 0 15 15" version="1.1" xmlns="http://www.w3.org/2000/svg" xmlns:xlink="http://www.w3.org/1999/xlink">
    <!-- Generator: sketchtool 40.1 (33804) - http://www.bohemiancoding.com/sketch -->
    <title>33D49CAF-2374-4148-9546-59C28A713E68</title>
    <desc>Created with sketchtool.</desc>
    <defs></defs>
    <g id="1200-Grid" stroke="none" stroke-width="1" fill="none" fill-rule="evenodd">
        <g id="Assets" transform="translate(-668.000000, -313.000000)" fill="#5D52A8">
            <path d="M675.5,313 C671.36,313 668,316.36 668,320.5 C668,324.64 671.36,328 675.5,328 C679.64,328 683,324.64 683,320.5 C683,316.36 679.64,313 675.5,313 L675.5,313 Z M675.5,326.5 C672.185,326.5 669.5,323.815 669.5,320.5 C669.5,317.185 672.185,314.5 675.5,314.5 C678.815,314.5 681.5,317.185 681.5,320.5 C681.5,323.815 678.815,326.5 675.5,326.5 L675.5,326.5 Z" id="Unchecked"></path>
        </g>
    </g>
</svg>